# AST/ASF file generated using VICON BodyLanguage
# -----------------------------------------------
:version 1.10
:name VICON
:units
  mass 1.0
  length 0.45
  angle deg
:documentation
   .ast/.asf automatically generated from VICON data using
   VICON BodyBuilder and BodyLanguage model FoxedUp or BRILLIANT.MOD
:root
   order TX TY TZ RX RY RZ
   axis XYZ
   position 0 0 0  
   orientation 0 0 0 
:bonedata
  begin
     id 1 
     name lhipjoint
     direction 0.78388 -0.462562 0.414208 
     length 3.01181 
     axis 0 0 0  XYZ
  end
  begin
     id 2 
     name lfemur
     direction 0.34202 -0.939693 0  
     length 6.04673  
     axis 0 0 20  XYZ
    dof rx ry rz
    limits (-160.0 20.0)
           (-70.0 70.0)
           (-60.0 70.0)
  end
  begin
     id 3 
     name ltibia
     direction 0.34202 -0.939693 0   
     length 7.211   
     axis 0 0 20   XYZ
    dof rx
    limits (-10.0 170.0)
  end
  begin
     id 4 
     name lfoot
     direction 0.121887 -0.334882 0.934344   
     length 2.13567   
     axis -90 7.62852e-016 20   XYZ
    dof rx rz
    limits (-45.0 90.0)
           (-70.0 20.0)
  end
  begin
     id 5 
     name ltoes
     direction 1.53555e-011 -4.2179e-011 1   
     length 1.05957   
     axis -90 7.62852e-016 20   XYZ
    dof rx
    limits (-90.0 20.0)
  end
  begin
     id 6 
     name rhipjoint
     direction -0.769387 -0.475875 0.426129   
     length 2.92756  
     axis 0 0 0  XYZ 
  end
  begin
     id 7 
     name rfemur
     direction -0.34202 -0.939693 0   
     length 6.35468   
     axis 0 0 -20   XYZ
    dof rx ry rz
    limits (-160.0 20.0)
           (-70.0 70.0)
           (-70.0 60.0)
  end
  begin
     id 8 
     name rtibia
     direction -0.34202 -0.939693 0   
     length 7.37886   
     axis 0 0 -20   XYZ
    dof rx
    limits (-10.0 170.0)
 end
 begin
     id 9 
     name rfoot
     direction -0.101763 -0.279592 0.954711   
     length 2.21478  
     axis -90 -7.62852e-016 -20   XYZ
    dof rx rz
    limits (-45.0 90.0)
           (-20.0 70.0)
  end
  begin
     id 10 
     name rtoes
     direction -1.53494e-011 -4.21851e-011 1   
     length 1.10506   
     axis -90 -7.62852e-016 -20   XYZ
    dof rx
    limits (-90.0 20.0)
  end
  begin
     id 11 
     name lowerback
     direction 0.00747405 0.999267 0.0375481   
     length 2.13259   
     axis 0 0 0   XYZ
    dof rx ry rz
    limits (-20.0 45.0)
           (-30.0 30.0)
           (-30.0 30.0)
  end
  begin
     id 12 
     name upperback
     direction 0.00661626 0.996177 0.0871029   
     length 2.10528   
     axis 0 0 0   XYZ
    dof rx ry rz
    limits (-20.0 45.0)
           (-30.0 30.0)
           (-30.0 30.0)
  end
  begin
     id 13 
     name thorax
     direction 0.00320659 0.997679 0.0680167   
     length 2.11338   
     axis 0 0 0   XYZ
    dof rx ry rz
    limits (-20.0 45.0)
           (-30.0 30.0)
           (-30.0 30.0)
  end
  begin
     id 14 
     name lowerneck
     direction 0.0374841 0.973033 0.227602   
     length 1.42765   
     axis 0 0 0   XYZ
    dof rx ry rz
    limits (-20.0 45.0)
           (-30.0 30.0)
           (-30.0 30.0)
  end
  begin
     id 15 
     name upperneck
     direction 0.00481585 0.989155 -0.146795   
     length 1.47593   
     axis 0 0 0   XYZ
    dof rx ry rz
    limits (-20.0 45.0)
           (-30.0 30.0)
           (-30.0 30.0)
  end
  begin
     id 16
     name head
     direction -0.00292522 0.997206 -0.0746423  
     length 1.48116  
     axis 0 0 0   XYZ
    dof rx ry rz
    limits (-20.0 45.0)
           (-30.0 30.0)
           (-30.0 30.0)
  end
  begin
     id 17 
     name lclavicle
     direction 0.951444 0.305606 0.0368784  
     length 3.01855  
     axis 0 0 0   XYZ
    dof ry rz
    limits (-20.0 10.0)
           (0.0 20.0)
  end
  begin
     id 18 
     name lhumerus
     direction 1 -4.48977e-011 2.61664e-027   
     length 5.52731   
     axis 180 -30 -90   XYZ
    dof rx ry rz
    limits (-60.0 90.0)
           (-90.0 90.0)
           (-90.0 90.0)
  end
  begin
     id 19
     name lradius
     direction 1 -4.48944e-011 8.22157e-027   
     length 3.11059   
     axis 180 -30 -90   XYZ
    dof rx
    limits (-10.0 170.0)
  end
  begin
     id 20
     name lwrist
     direction 1 -4.48976e-011 1.5779e-026   
     length 1.5553   
     axis -1.15221e-014 90 90   XYZ
    dof ry
    limits (-180.0 0.0)
 end
  begin
     id 21 
     name lhand
     direction 1 -4.49025e-011 3.1558e-026   
     length 0.419626   
     axis -2.01367e-014 90 90   XYZ
    dof rx rz
    limits (-90.0 90.0)
           (-45.0 45.0)
  end
  begin
     id 22 
     name lfingers
     direction 1 -4.4904e-011 6.31161e-026   
     length 0.338313   
     axis -4.02734e-014 90 90   XYZ
    dof rx
    limits (0.0 90.0)
  end
  begin
     id 23
     name lthumb
     direction 0.707107 -6.35004e-011 0.707107   
     length 0.485752   
     axis -90 45 2.85299e-015   XYZ
    dof rx rz
    limits (-45.0 45.0)
           (-45.0 45.0)
  end
  begin
     id 24 
     name rclavicle
     direction -0.968876 0.223791 0.105816   
     length 3.04177  
     axis 0 0 0   XYZ 
    dof ry rz
    limits (-10.0 20.0)
           (-20.0 0.0)
  end
  begin
     id 25 
     name rhumerus
     direction -1 -4.48962e-011 -1.01384e-027  
     length 5.25396   
     axis 180 30 90   XYZ
    dof rx ry rz
    limits (-90.0 60.0)
           (-90.0 90.0)
           (-90.0 90.0)
  end
  begin
     id 26 
     name rradius
     direction -1 -4.48955e-011 8.88542e-027   
     length 3.10567   
     axis 180 30 90   XYZ
    dof rx
    limits (-10.0 170.0)
  end
  begin
     id 27 
     name rwrist
     direction -1 -4.48994e-011 1.5779e-026   
     length 1.55283   
     axis -1.15221e-014 -90 -90   XYZ
    dof ry
    limits (-180.0 0.0)
  end
  begin
     id 28
     name rhand
     direction -1 -4.48891e-011 3.1558e-026   
     length 0.498676   
     axis -2.01367e-014 -90 -90   XYZ
    dof rx rz
    limits (-90.0 90.0)
           (-45.0 45.0)
  end
  begin
     id 29
     name rfingers
     direction -1 -4.48972e-011 6.31161e-026   
     length 0.402045   
     axis -4.02734e-014 -90 -90   XYZ
    dof rx
    limits (0.0 90.0)
  end
  begin
     id 30
     name rthumb
     direction -0.707107 -6.34849e-011 0.707107   
     length 0.577259   
     axis -90 -45 -2.85299e-015   XYZ
    dof rx rz
    limits (-45.0 45.0)
           (-45.0 45.0)
  end
:hierarchy
  begin
    root lhipjoint rhipjoint lowerback
    lhipjoint lfemur
    lfemur ltibia
    ltibia lfoot
    lfoot ltoes
    rhipjoint rfemur
    rfemur rtibia
    rtibia rfoot
    rfoot rtoes
    lowerback upperback
    upperback thorax
    thorax lowerneck lclavicle rclavicle
    lowerneck upperneck
    upperneck head
    lclavicle lhumerus
    lhumerus lradius
    lradius lwrist
    lwrist lhand lthumb
    lhand lfingers
    rclavicle rhumerus
    rhumerus rradius
    rradius rwrist
    rwrist rhand rthumb
    rhand rfingers
  end

#!OML:ASF H:\Pregnant\Project 1\Capture day 1\Session 1\femalepreg.ASF
:FULLY-SPECIFIED
:DEGREES
247
root 20.6513 15.3654 12.7962 206.267 4.51273 -180.522
lowerback -13.521 -0.467691 -6.122
upperback -5.31453 0.916591 -1.56697
thorax 1.92984 0.813437 1.95821
lowerneck -24.2261 8.61277 10.0819
upperneck 18.8003 9.9117 -6.14596
head 10.8617 4.54154 -2.186
rclavicle -8.84592e-015 1.51076e-014
rhumerus -52.8849 10.758 -84.0209
rradius 61.1985
rwrist -15.2335
rhand -16.7035 -24.861
rfingers 7.12502
rthumb 9.52144 -54.6259
lclavicle -8.84592e-015 1.51076e-014
lhumerus -30.4193 -11.5772 88.3603
lradius 40.6363
lwrist 35.0259
lhand -19.9281 -8.14357
lfingers 7.12502
lthumb 6.40918 21.7395
rfemur -65.8732 14.775 7.73933
rtibia 41.4162
rfoot -11.0303 -9.00259
rtoes -18.1373
lfemur -12.9055 -8.80491 -20.4927
ltibia 14.8713
lfoot -14.519 1.60781
ltoes -33.7629
248
root 20.6636 15.3471 12.6266 206.147 4.51988 -180.681
lowerback -13.7775 -0.360924 -5.90617
upperback -5.33658 1.03715 -1.29095
thorax 2.03397 0.86982 2.14769
lowerneck -24.2702 8.6808 10.2092
upperneck 19.2313 10.1108 -6.55581
head 11.0801 4.59498 -2.31405
rclavicle 5.26779e-015 8.34896e-015
rhumerus -52.4366 10.7767 -83.5455
rradius 61.5127
rwrist -15.4621
rhand -17.1758 -25.2442
rfingers 7.12502
rthumb 9.06571 -55.0294
lclavicle 5.26779e-015 8.34896e-015
lhumerus -30.9705 -12.5541 89.0546
lradius 41.0432
lwrist 34.6891
lhand -19.5491 -8.05468
lfingers 7.12502
lthumb 6.77513 21.8169
rfemur -65.6862 14.8357 7.51585
rtibia 40.9353
rfoot -11.0057 -9.32142
rtoes -19.0491
lfemur -11.896 -8.87791 -20.7519
ltibia 14.4327
lfoot -14.0085 1.255
ltoes -34.5729
249
root 20.675 15.3264 12.4548 205.972 4.52995 -180.857
lowerback -14.0228 -0.244118 -5.6643
upperback -5.33581 1.16366 -1.00951
thorax 2.1554 0.927257 2.33024
lowerneck -24.2749 8.73659 10.2922
upperneck 19.6429 10.3221 -6.971
head 11.2862 4.65176 -2.43693
rclavicle -8.39865e-015 2.78299e-015
rhumerus -51.9265 10.8026 -83.0699
rradius 61.7661
rwrist -15.7121
rhand -17.6109 -25.6673
rfingers 7.12502
rthumb 8.64583 -55.4703
lclavicle -8.39865e-015 2.78299e-015
lhumerus -31.5526 -13.5629 89.7481
lradius 41.4592
lwrist 34.4215
lhand -19.1398 -7.94744
lfingers 7.12502
lthumb 7.17023 21.9111
rfemur -65.3751 14.7845 7.48166
rtibia 40.6621
rfoot -10.6341 -9.45376
rtoes -20.3419
lfemur -10.961 -8.9119 -21.0406
ltibia 14.2368
lfoot -13.5212 0.834949
ltoes -35.3404
250
root 20.6853 15.3046 12.2816 205.742 4.53888 -181.039
lowerback -14.2356 -0.118946 -5.38661
upperback -5.32479 1.29145 -0.718495
thorax 2.27018 0.984872 2.50335
lowerneck -24.2192 8.7791 10.3463
upperneck 20.0379 10.5469 -7.40653
head 11.4789 4.71288 -2.56267
rclavicle 6.26172e-015 -7.35503e-015
rhumerus -51.3747 10.8452 -82.6009
rradius 61.956
rwrist -15.9742
rhand -18.0293 -26.0824
rfingers 7.12502
rthumb 8.24202 -55.9016
lclavicle 6.26172e-015 -7.35503e-015
lhumerus -32.184 -14.5839 90.4418
lradius 41.883
lwrist 34.2104
lhand -18.7039 -7.83082
lfingers 7.12502
lthumb 7.59097 22.013
rfemur -64.936 14.6277 7.62943
rtibia 40.6439
rfoot -9.95819 -9.31957
rtoes -21.848
lfemur -10.1221 -8.89841 -21.346
ltibia 14.3201
lfoot -13.0507 0.339787
ltoes -36.085
251
root 20.6948 15.2822 12.1072 205.457 4.55075 -181.235
lowerback -14.4191 0.016769 -5.07704
upperback -5.2979 1.4244 -0.426102
thorax 2.38589 1.04419 2.66122
lowerneck -24.1184 8.80996 10.3832
upperneck 20.42 10.7842 -7.86912
head 11.6634 4.7779 -2.69525
rclavicle -1.24489e-014 1.28216e-014
rhumerus -50.7759 10.8943 -82.1429
rradius 62.0932
rwrist -16.2412
rhand -18.4059 -26.5607
rfingers 7.12502
rthumb 7.87854 -56.3939
lclavicle -1.24489e-014 1.28216e-014
lhumerus -32.8469 -15.6118 91.1272
lradius 42.3068
lwrist 34.0324
lhand -18.2518 -7.71621
lfingers 7.12502
lthumb 8.02735 22.1114
rfemur -64.3841 14.3801 7.92204
rtibia 40.921
rfoot -9.15483 -8.86172
rtoes -23.1088
lfemur -9.40714 -8.83219 -21.6714
ltibia 14.7204
lfoot -12.5876 -0.232662
ltoes -36.8099
252
root 20.7033 15.2597 11.9327 205.13 4.5582 -181.437
lowerback -14.5612 0.159116 -4.72746
upperback -5.27015 1.55744 -0.133939
thorax 2.4813 1.10446 2.79602
lowerneck -23.9599 9.0373 10.3327
upperneck 20.8282 10.9757 -8.29947
head 11.8433 4.6756 -2.84159
rclavicle -2.34877e-014 -7.95139e-016
rhumerus -50.1506 10.9458 -81.7071
rradius 62.1745
rwrist -16.4988
rhand -18.7632 -27.0488
rfingers 7.12502
rthumb 7.53375 -56.8947
lclavicle -2.34877e-014 -7.95139e-016
lhumerus -33.5523 -16.6286 91.8
lradius 42.7199
lwrist 33.8658
lhand -17.7757 -7.62078
lfingers 7.12502
lthumb 8.48682 22.1887
rfemur -63.7657 14.0644 8.31928
rtibia 41.4959
rfoot -8.4506 -8.13922
rtoes -23.9672
lfemur -8.86414 -8.71113 -22.0016
ltibia 15.4865
lfoot -12.1218 -0.889822
ltoes -37.4817
253
root 20.7106 15.2377 11.7586 204.772 4.55864 -181.644
lowerback -14.6684 0.306152 -4.33347
upperback -5.23546 1.68788 0.154699
thorax 2.56692 1.16371 2.90134
lowerneck -23.7473 9.10294 10.3613
upperneck 21.1842 11.2299 -8.81654
head 12.0091 4.7112 -3.00211
rclavicle -3.72721e-015 -1.15295e-014
rhumerus -49.4704 10.9969 -81.2994
rradius 62.1833
rwrist -16.7599
rhand -19.1242 -27.4992
rfingers 7.12502
rthumb 7.1853 -57.3572
lclavicle -3.72721e-015 -1.15295e-014
lhumerus -34.2713 -17.6035 92.4449
lradius 43.1146
lwrist 33.6823
lhand -17.2835 -7.55274
lfingers 7.12502
lthumb 8.96182 22.2369
rfemur -63.1311 13.7015 8.77704
rtibia 42.3301
rfoot -8.03603 -7.26978
rtoes -24.0577
lfemur -8.54348 -8.54205 -22.329
ltibia 16.6711
lfoot -11.6404 -1.62924
ltoes -38.0822
254
root 20.7167 15.2169 11.5857 204.391 4.54235 -181.848
lowerback -14.718 0.457005 -3.87915
upperback -5.21548 1.81434 0.434964
thorax 2.60892 1.22352 2.96137
lowerneck -23.4453 9.16537 10.397
upperneck 21.5106 11.4863 -9.35017
head 12.1516 4.74654 -3.17386
rclavicle -1.39646e-014 3.57812e-015
rhumerus -48.7704 11.0379 -80.9338
rradius 62.1195
rwrist -16.9818
rhand -19.4739 -27.9189
rfingers 7.12502
rthumb 6.84767 -57.7882
lclavicle -1.39646e-014 3.57812e-015
lhumerus -35.0342 -18.5213 93.0588
lradius 43.485
lwrist 33.4593
lhand -16.7565 -7.48945
lfingers 7.12502
lthumb 9.47029 22.2778
rfemur -62.506 13.3293 9.25511
rtibia 43.343
rfoot -8.01221 -6.40923
rtoes -23.4187
lfemur -8.48601 -8.32631 -22.634
ltibia 18.3146
lfoot -11.1109 -2.46396
ltoes -38.5545
255
root 20.7214 15.1967 11.4148 203.986 4.50247 -182.036
lowerback -14.7 0.614883 -3.34913
upperback -5.19408 1.93729 0.703683
thorax 2.61992 1.28207 2.96364
lowerneck -23.1087 9.2228 10.4259
upperneck 21.8081 11.7373 -9.88202
head 12.278 4.77882 -3.34753
rclavicle 2.52953e-014 -9.14409e-015
rhumerus -48.0147 11.0462 -80.6092
rradius 61.9657
rwrist -17.132
rhand -19.8195 -28.2809
rfingers 7.12502
rthumb 6.51412 -58.1607
lclavicle 2.52953e-014 -9.14409e-015
lhumerus -35.8033 -19.3708 93.6226
lradius 43.8245
lwrist 33.186
lhand -16.2254 -7.43687
lfingers 7.12502
lthumb 9.98266 22.3064
rfemur -61.8866 12.9891 9.71902
rtibia 44.4403
rfoot -8.39348 -5.72758
rtoes -22.2385
lfemur -8.69771 -8.0688 -22.9005
ltibia 20.4203
lfoot -10.4723 -3.39838
ltoes -38.8635
256
root 20.7246 15.1775 11.2466 203.548 4.43091 -182.187
lowerback -14.5839 0.779136 -2.717
upperback -5.18252 2.0537 0.959598
thorax 2.57315 1.33853 2.88954
lowerneck -22.7224 9.27549 10.4485
upperneck 22.0774 11.9768 -10.3857
head 12.3821 4.80997 -3.51455
rclavicle 1.63997e-014 4.77083e-015
rhumerus -47.2248 11.0267 -80.344
rradius 61.721
rwrist -17.1928
rhand -20.1547 -28.5716
rfingers 7.12502
rthumb 6.19045 -58.4612
lclavicle 1.63997e-014 4.77083e-015
lhumerus -36.6024 -20.1324 94.1264
lradius 44.1316
lwrist 32.8522
lhand -15.7241 -7.40433
lfingers 7.12502
lthumb 10.4663 22.3151
rfemur -61.2418 12.7094 10.168
rtibia 45.5277
rfoot -9.07521 -5.28673
rtoes -20.9356
lfemur -9.16066 -7.77951 -23.1024
ltibia 22.9597
lfoot -9.63939 -4.43517
ltoes -38.9319
257
root 20.7262 15.1593 11.0817 203.067 4.32065 -182.28
lowerback -14.3553 0.952783 -1.96083
upperback -5.16421 2.1646 1.20227
thorax 2.47938 1.39108 2.72575
lowerneck -22.3268 9.32457 10.4706
upperneck 22.321 12.1995 -10.854
head 12.4713 4.83884 -3.67262
rclavicle -2.66371e-014 -1.19271e-014
rhumerus -46.3724 10.9843 -80.1414
rradius 61.3683
rwrist -17.1699
rhand -20.4973 -28.7876
rfingers 7.12502
rthumb 5.8597 -58.6866
lclavicle -2.66371e-014 -1.19271e-014
lhumerus -37.3989 -20.8027 94.5537
lradius 44.3933
lwrist 32.4746
lhand -15.2802 -7.38231
lfingers 7.12502
lthumb 10.8945 22.3151
rfemur -60.5137 12.5006 10.6181
rtibia 46.5342
rfoot -9.88659 -5.08484
rtoes -19.6706
lfemur -9.83331 -7.46963 -23.2185
ltibia 25.8715
lfoot -8.5207 -5.55326
ltoes -38.6811
258
root 20.7262 15.1428 10.9207 202.531 4.16687 -182.292
lowerback -13.9841 1.12592 -1.06421
upperback -5.14536 2.25901 1.43793
thorax 2.31698 1.43409 2.46623
lowerneck -21.9273 9.37994 10.5182
upperneck 22.5486 12.411 -11.2849
head 12.5522 4.87072 -3.82365
rclavicle -8.64713e-015 2.46493e-014
rhumerus -45.4756 10.9414 -80.0142
rradius 60.9184
rwrist -17.0628
rhand -20.8502 -28.9022
rfingers 7.12502
rthumb 5.51903 -58.8103
lclavicle -8.64713e-015 2.46493e-014
lhumerus -38.2037 -21.3574 94.8919
lradius 44.6019
lwrist 32.0703
lhand -14.9207 -7.39024
lfingers 7.12502
lthumb 11.2412 22.2886
rfemur -59.6492 12.3801 11.0815
rtibia 47.4116
rfoot -10.7279 -5.11827
rtoes -18.7065
lfemur -10.6665 -7.15098 -23.2253
ltibia 29.0609
lfoot -7.03537 -6.71262
ltoes -38.0172
259
root 20.7248 15.1278 10.7636 201.946 3.96878 -182.215
lowerback -13.4903 1.28832 -0.0329362
upperback -5.11531 2.32999 1.67054
thorax 2.10699 1.46266 2.11867
lowerneck -21.5435 9.44996 10.607
upperneck 22.7601 12.618 -11.6772
head 12.6302 4.91029 -3.96753
rclavicle -9.34288e-015 -5.48646e-014
rhumerus -44.5196 10.9166 -79.9597
rradius 60.3779
rwrist -16.9001
rhand -21.199 -28.9582
rfingers 7.12502
rthumb 5.18223 -58.8749
lclavicle -9.34288e-015 -5.48646e-014
lhumerus -38.9965 -21.7887 95.128
lradius 44.7565
lwrist 31.6699
lhand -14.6784 -7.43148
lfingers 7.12502
lthumb 11.4749 22.2345
rfemur -58.6223 12.3403 11.5776
rtibia 48.1372
rfoot -11.5823 -5.32849
rtoes -18.0237
lfemur -11.62 -6.83578 -23.1153
ltibia 32.4207
lfoot -5.16009 -7.84273
ltoes -36.8518
260
root 20.7224 15.1148 10.6096 201.331 3.72796 -182.048
lowerback -12.9114 1.4275 1.1201
upperback -5.07172 2.36983 1.90147
thorax 1.87025 1.4727 1.69314
lowerneck -21.1907 9.54175 10.7586
upperneck 22.9582 12.8262 -12.0381
head 12.7126 4.96125 -4.10876
rclavicle 8.54774e-015 9.54166e-015
rhumerus -43.5003 10.9188 -79.9733
rradius 59.7494
rwrist -16.6911
rhand -21.5249 -28.9713
rfingers 7.12502
rthumb 4.86751 -58.8954
lclavicle 8.54774e-015 9.54166e-015
lhumerus -39.7655 -22.0986 95.2564
lradius 44.8501
lwrist 31.3134
lhand -14.5796 -7.49476
lfingers 7.12502
lthumb 11.5702 22.1659
rfemur -57.4498 12.3464 12.1358
rtibia 48.7052
rfoot -12.4366 -5.63942
rtoes -17.7936
lfemur -12.661 -6.53759 -22.8917
ltibia 35.8416
lfoot -2.95675 -8.87176
ltoes -35.1576
261
root 20.7195 15.1049 10.4583 200.715 3.44962 -181.807
lowerback -12.2886 1.52973 2.35394
upperback -5.0125 2.37027 2.1337
thorax 1.62753 1.46059 1.2177
lowerneck -20.8852 9.65987 10.971
upperneck 23.1348 13.0435 -12.3681
head 12.8005 5.02708 -4.24461
rclavicle -5.1684e-015 7.95139e-015
rhumerus -42.3937 10.9614 -80.0405
rradius 59.0317
rwrist -16.4622
rhand -21.8022 -28.9804
rfingers 7.12502
rthumb 4.59981 -58.9105
lclavicle -5.1684e-015 7.95139e-015
lhumerus -40.4886 -22.2821 95.2752
lradius 44.8821
lwrist 31.0322
lhand -14.6416 -7.59088
lfingers 7.12502
lthumb 11.5104 22.0731
rfemur -56.1804 12.3514 12.7673
rtibia 49.1248
rfoot -13.2327 -5.9951
rtoes -17.7923
lfemur -13.7747 -6.27912 -22.574
ltibia 39.234
lfoot -0.588678 -9.73922
ltoes -32.9894
